<mxfile host="Electron" agent="Mozilla/5.0 (Windows NT 10.0; Win64; x64) AppleWebKit/537.36 (KHTML, like Gecko) draw.io/26.0.7 Chrome/128.0.6613.186 Electron/32.2.5 Safari/537.36" version="26.0.7">
  <diagram name="Page-1" id="Hxy_ZuIgAigQAuNg_0g7">
    <mxGraphModel dx="1050" dy="621" grid="1" gridSize="10" guides="1" tooltips="1" connect="1" arrows="1" fold="1" page="1" pageScale="1" pageWidth="850" pageHeight="1100" math="0" shadow="0">
      <root>
        <mxCell id="0" />
        <mxCell id="1" parent="0" />
        <mxCell id="nR_RWJZnegtFRqn7nPhD-1" style="rounded=0;orthogonalLoop=1;jettySize=auto;html=1;dashed=1;fillColor=#ffe6cc;strokeColor=#d79b00;fontSize=14;endArrow=open;endFill=0;" parent="1" source="nR_RWJZnegtFRqn7nPhD-2" target="nR_RWJZnegtFRqn7nPhD-3" edge="1">
          <mxGeometry relative="1" as="geometry" />
        </mxCell>
        <mxCell id="nR_RWJZnegtFRqn7nPhD-2" value="Làm bài" style="ellipse;whiteSpace=wrap;html=1;fillColor=#ffe6cc;strokeColor=#d79b00;fontSize=14;" parent="1" vertex="1">
          <mxGeometry x="141" y="130" width="100" height="40" as="geometry" />
        </mxCell>
        <mxCell id="nR_RWJZnegtFRqn7nPhD-3" value="nộp bài" style="ellipse;whiteSpace=wrap;html=1;fillColor=#ffe6cc;strokeColor=#d79b00;fontSize=14;" parent="1" vertex="1">
          <mxGeometry x="325" y="130" width="100" height="40" as="geometry" />
        </mxCell>
        <mxCell id="nR_RWJZnegtFRqn7nPhD-4" value="&lt;font style=&quot;font-size: 13px;&quot;&gt;&amp;lt;&amp;lt;extend&amp;gt;&amp;gt;&lt;/font&gt;" style="text;html=1;strokeColor=none;fillColor=none;align=center;verticalAlign=middle;whiteSpace=wrap;rounded=0;rotation=0;fontSize=13;" parent="1" vertex="1">
          <mxGeometry x="250" y="120" width="60" height="30" as="geometry" />
        </mxCell>
        <mxCell id="nR_RWJZnegtFRqn7nPhD-5" style="rounded=0;orthogonalLoop=1;jettySize=auto;html=1;entryX=0;entryY=0.5;entryDx=0;entryDy=0;fillColor=#d5e8d4;strokeColor=#82b366;fontSize=14;" parent="1" source="nR_RWJZnegtFRqn7nPhD-6" target="nR_RWJZnegtFRqn7nPhD-2" edge="1">
          <mxGeometry relative="1" as="geometry" />
        </mxCell>
        <mxCell id="nR_RWJZnegtFRqn7nPhD-6" value="Thí sinh" style="shape=umlActor;verticalLabelPosition=bottom;verticalAlign=top;html=1;outlineConnect=0;fillColor=#d5e8d4;strokeColor=#82b366;fontSize=14;" parent="1" vertex="1">
          <mxGeometry x="30" y="120" width="30" height="60" as="geometry" />
        </mxCell>
        <mxCell id="3ADOnbWPQ9WqAM6LPTQ3-2" style="rounded=0;orthogonalLoop=1;jettySize=auto;html=1;entryX=0.5;entryY=0;entryDx=0;entryDy=0;fillColor=#fff2cc;strokeColor=#d6b656;dashed=1;endArrow=open;endFill=0;" edge="1" parent="1" source="3ADOnbWPQ9WqAM6LPTQ3-1" target="nR_RWJZnegtFRqn7nPhD-2">
          <mxGeometry relative="1" as="geometry" />
        </mxCell>
        <mxCell id="3ADOnbWPQ9WqAM6LPTQ3-1" value="Xác thực&lt;div&gt;thí sinh&lt;/div&gt;" style="ellipse;whiteSpace=wrap;html=1;fillColor=#ffe6cc;strokeColor=#d79b00;fontSize=14;" vertex="1" parent="1">
          <mxGeometry x="41" y="20" width="100" height="40" as="geometry" />
        </mxCell>
        <mxCell id="3ADOnbWPQ9WqAM6LPTQ3-3" value="&amp;lt;&amp;lt;include&amp;gt;&amp;gt;" style="text;html=1;align=center;verticalAlign=middle;resizable=0;points=[];autosize=1;strokeColor=none;fillColor=none;fontFamily=Helvetica;fontSize=13;fontColor=default;labelBackgroundColor=default;rotation=40;" vertex="1" parent="1">
          <mxGeometry x="117" y="73" width="100" height="30" as="geometry" />
        </mxCell>
      </root>
    </mxGraphModel>
  </diagram>
</mxfile>
